<svg xmlns="http://www.w3.org/2000/svg" width="253.415" height="248.668" viewBox="0 0 253.415 248.668">
  <path id="M1" d="M105.943-48.462c18.2,11.48,35.917,22.8,49.038,38.869C167.937,6.644,176.3,27.636,174.17,47.317c-2.132,19.845-14.925,38.213-26.4,57.238-11.48,18.861-21.649,38.213-37.557,48.546-16.073,10.5-37.885,12.136-61.5,15.253s-49.038,7.544-71.342.82c-22.3-6.888-41.657-24.929-50.186-46.906s-6.4-47.89-3.772-72C-73.807,26-70.527,3.363-60.522-16.317c10-19.517,26.569-36.081,46.25-46.742,19.517-10.5,42.149-15.253,62.814-11.808S87.9-59.943,105.943-48.462Z" transform="translate(78.914 75.976)" fill="#f2f4f8"/>
</svg>
