<svg xmlns="http://www.w3.org/2000/svg" width="208.68" height="286.492" viewBox="0 0 208.68 286.492">
  <path id="E7" d="M135.8,34.7c20.122,9.812,40.078,24.612,31.929,39.08-8.315,14.468-44.568,28.936-49.89,55.71-5.322,26.94,20.455,66.353,18.625,93.293-2,26.774-31.6,40.909-60.865,40.411-29.1-.5-58.038-15.8-68.349-39.912s-2.162-57.04,3.659-79.657C16.561,121,19.887,108.7,14.233,83.254,8.578,57.977-6.056,19.562,2.758,6.092c8.648-13.3,40.577-1.829,66.686,6.153C95.553,20.393,115.675,25.05,135.8,34.7Z" transform="translate(0 26.531) rotate(-9)" fill="#f2f4f8"/>
</svg>
