<svg id="Logo_Paris_La_Défense_Arena_-_2018" xmlns="http://www.w3.org/2000/svg" width="502.558" height="256.4" viewBox="0 0 502.558 256.4">
  <g id="g600" transform="translate(0 202.989)">
    <g id="g577" transform="translate(384.008 0.829)">
      <path id="path138" d="M9480.848,253.87h-5.395l-8.6,51.677-.031.16h3.711l2.945-18.439h9.395l3.109,18.439h3.863l-8.984-51.724Zm-2.949,3.286v-.063h.313v.063c.418,4.17,1.793,13.141,4.086,26.661v.076h-8.312v-.076c.383-2.5.789-5.049,1.188-7.574l.125-.779c1.3-7.957,2.492-15.456,2.621-18.309Z" transform="translate(-9466.824 -253.87)" fill="#fff"/>
      <path id="path140" d="M9910.1,253.87h-7.609v51.837h3.676V281.479h4.207c4.59,0,6.527,1.212,6.594,8.727v15.5h3.645v-15.46c0-6.573-1.293-9.3-4.836-10.4l-.191-.063.191-.063c3.477-1.149,5.246-4.831,5.246-10.941v-3.4C9921.055,257.308,9917.781,253.87,9910.1,253.87Zm7.2,11.668v3.425c0,8.155-3.164,9.257-6.586,9.257h-4.547V257.106h3.789C9915.1,257.106,9917.3,259.627,9917.3,265.539Z" transform="translate(-9875.124 -253.87)" fill="#fff"/>
      <path id="polygon142" d="M6917.938,71.263h16.184V67.892h-12.5V45.115h11.816V41.74h-11.816V22.809h12.5V19.425h-16.184Z" transform="translate(-6867.661 -19.425)" fill="#fff"/>
      <path id="path144" d="M10610.832,275.478c0,8.209.121,15.569.387,23.143v.08h-.27v-.055c-1.027-5.151-8.832-33.116-12.25-44.667l-.035-.1h-4.629v51.825h3.582V284.226c0-8.647-.211-17.921-.566-24.827v-.071h.2v.055c1.23,5.163,8.973,33.663,12.621,46.207l.031.1h4.516V253.87h-3.574Z" transform="translate(-10523.223 -253.87)" fill="#fff"/>
      <path id="path146" d="M11001.406,253.984l-.016-.114H10996l-8.605,51.677-.027.16h3.707l2.941-18.439h9.395l3.109,18.439h3.875Zm-2.949,3.177v-.067h.309v.063c.422,4.178,1.8,13.15,4.1,26.661v.076h-8.316v-.076c.422-2.752.875-5.592,1.3-8.361v-.046c1.3-7.923,2.484-15.422,2.6-18.25Z" transform="translate(-10891.846 -253.87)" fill="#fff"/>
    </g>
    <g id="g570" transform="translate(0 0)">
      <path id="path148" d="M3353.9,253.8h11.528c8.236,0,12.432,4.069,12.432,13.238V270.1c0,8.555-3.055,14.235-12.875,14.235h-3.09v21.313h-8Zm8,23.985h2.192c4.988,0,5.842-2.912,5.842-7.97v-2.537c0-3.787-.692-6.876-5.132-6.876h-2.9Z" transform="translate(-3353.904 -252.979)" fill="#fff"/>
      <path id="path150" d="M3724.629,291.78l-1.814,13.886h-8.133l8.35-51.862h11.3L3743,305.645h-8.352l-2.041-13.886Zm7.033-7.356c-1.187-8.8-2.32-17.16-2.91-23.021h-.293c-.225,4.271-1.781,15.371-2.816,23.021Z" transform="translate(-3692.018 -252.979)" fill="#fff"/>
      <path id="path152" d="M4258.368,269.343v-2.984c0-9.333-4.66-12.489-12.543-12.489h-11.078v51.837h8V283.553h1.854c4.629,0,5.449,1.448,5.471,7.738v14.433h7.793V290.66c-.023-6.926-1.746-9.093-4.75-10.52C4255.1,279.345,4258.368,277.308,4258.368,269.343Zm-13.791,7.574h-1.832V260.469H4245c4.531,0,5.361,2.441,5.361,6.446v2.79c0,5.634-1.559,7.229-5.787,7.229Z" transform="translate(-4179.415 -253.041)" fill="#fff"/>
      <path id="polygon154" d="M1338.838,19.358V71.2h-7.994V19.358Z" transform="translate(-1247.536 -18.534)" fill="#fff"/>
      <path id="path156" d="M4884.639,276.4v4.881c0,3.859,1.16,6,4.207,6,3.115,0,3.926-2.945,3.926-6.312,0-5.575-1.205-7.3-6.764-11.69s-8.555-7.221-8.555-14.892c0-6.833,2.07-13.73,11.424-13.722,9.57,0,11.047,6.834,11.047,12.455v4.452H4892v-4.237c0-3.61-.613-5.794-3.268-5.794s-3.285,2.26-3.285,5.693c0,3.665.693,5.47,5.256,8.795,7.756,5.735,10.131,9.064,10.131,17.74,0,7.351-2.574,14.307-12.248,14.307-9.59,0-11.93-6.11-11.93-12.939V276.4Z" transform="translate(-4781 -240.674)" fill="#fff"/>
      <path id="polygon158" d="M2110.005,19.358h8v44.7h9.468l-1.047,7.153h-16.416Z" transform="translate(-1977.751 -18.534)" fill="#fff"/>
      <path id="path160" d="M5774.348,291.78l-1.818,13.886H5764.4l8.346-51.862h11.3l8.668,51.841h-8.354l-2.041-13.886Zm7.031-7.356c-1.187-8.8-2.316-17.16-2.906-23.021h-.295c-.223,4.271-1.781,15.371-2.814,23.021Z" transform="translate(-5612.977 -252.979)" fill="#fff"/>
      <path id="path162" d="M6412.072,253.8h11.088c11,0,13.672,5.7,13.672,15.321V289c0,7.928-1.357,16.642-13.682,16.642h-11.078Zm7.994,45.025h2.564c5.256,0,6.061-3.366,6.061-8.748V268.493c0-4.767-.844-7.814-6.111-7.814h-2.527Z" transform="translate(-6219.961 -252.979)" fill="#fff"/>
      <path id="polygon164" d="M3545.586,47.522h-11.395V63.849h12.018V71.2h-20.021V19.358h20.021v7.423h-12.027V40.167h11.4Z" transform="translate(-3304.97 -18.534)" fill="#fff"/>
      <path id="polygon166" d="M3934.562,26.781h-12.205V40.419h11.627v7.423h-11.621V71.2h-8l0-51.841h20.2Z" transform="translate(-3668.759 -18.534)" fill="#fff"/>
      <path id="polygon168" d="M4324.54,47.522h-11.395V63.849h12.021V71.2h-20.02V19.358h20.02v7.423h-12.021V40.167h11.395Z" transform="translate(-4034.996 -18.534)" fill="#fff"/>
      <path id="path170" d="M8042.4,305.645V253.8h9.254c2.066,7.318,8.254,32.906,8.8,35.654h.082c-.363-6.375-.387-13.672-.387-22.188V253.8h7.387v51.841h-8.914c-1.633-6.19-8.535-34.623-9.047-36.8h-.082c.375,6.278.348,13.305.348,22.626v14.177Z" transform="translate(-7747.876 -252.979)" fill="#fff"/>
      <path id="path172" d="M8520.148,276.4v4.881c0,3.859,1.16,6,4.2,6,3.121,0,3.93-2.945,3.93-6.312,0-5.575-1.2-7.3-6.766-11.69s-8.555-7.221-8.555-14.892c0-6.833,2.066-13.73,11.422-13.722,9.57,0,11.047,6.834,11.047,12.455v4.452H8527.5v-4.237c0-3.61-.605-5.794-3.27-5.794s-3.277,2.26-3.277,5.693c0,3.665.691,5.47,5.25,8.795,7.758,5.735,10.137,9.064,10.137,17.74,0,7.351-2.578,14.307-12.25,14.307-9.59,0-11.93-6.11-11.93-12.939V276.4Z" transform="translate(-8188.128 -240.674)" fill="#fff"/>
      <path id="polygon174" d="M5622.074,47.522H5610.68V63.849h12.043V71.2H5602.7V19.358h20.021v7.423H5610.7V40.167h11.4Z" transform="translate(-5251.038 -18.534)" fill="#fff"/>
    </g>
  </g>
  <g id="g554">
    <path id="path177" d="M0,1042.635C0,1008.524,15.752,980.9,35.178,980.9v123.423C15.752,1104.323,0,1076.688,0,1042.635" transform="translate(0 -919.855)" fill="#fff"/>
    <path id="path179" d="M542.082,491.712c0-43.95,29.679-79.576,66.292-79.576V571.287c-36.613,0-66.292-35.592-66.292-79.576" transform="translate(-508.028 -386.82)" fill="#fff"/>
    <path id="path181" d="M1579.457,101.366c0-50.965,43.146-92.228,96.315-92.228V193.606c-53.192,0-96.315-41.332-96.315-92.24" transform="translate(-1480.237 -9.138)" fill="#fff"/>
    <path id="path183" d="M3094.764,323.538c0-46.969,38.563-85.03,86.108-85.03V408.568c-47.579,0-86.108-38.072-86.108-85.029" transform="translate(-2900.353 -224.1)" fill="#fff"/>
    <path id="path185" d="M4448.139,654.723c0-41.011,32.377-74.26,72.334-74.26V729.04c-39.943,0-72.334-33.3-72.334-74.271" transform="translate(-4168.71 -544.572)" fill="#fff"/>
    <path id="path187" d="M5581.467,1042.978c0-34.087,26.842-61.711,59.943-61.711v123.422c-33.1,0-59.943-27.636-59.943-61.711" transform="translate(-5230.844 -920.198)" fill="#fff"/>
    <path id="path189" d="M6517.773,1236.277c0-30.621,22.584-55.431,50.449-55.431v110.862c-27.865,0-50.449-24.822-50.449-55.431" transform="translate(-6108.333 -1107.24)" fill="#fff"/>
    <path id="path191" d="M7302.2,1397.884c0-27.716,19.617-50.173,43.832-50.173v100.357c-24.215,0-43.832-22.469-43.832-50.184" transform="translate(-6843.485 -1263.623)" fill="#fff"/>
  </g>
</svg>
